<?xml version="1.0" encoding="utf-8"?>
<!-- Generator: Adobe Illustrator 16.0.0, SVG Export Plug-In . SVG Version: 6.00 Build 0)  -->
<!DOCTYPE svg PUBLIC "-//W3C//DTD SVG 1.1//EN" "http://www.w3.org/Graphics/SVG/1.1/DTD/svg11.dtd">
<svg version="1.1" id="Capa_1" xmlns="http://www.w3.org/2000/svg" xmlns:xlink="http://www.w3.org/1999/xlink" x="0px" y="0px"
	 width="32px" height="32px" viewBox="0 0 32 32" enable-background="new 0 0 32 32" xml:space="preserve">
<circle fill="#67DDE0" cx="16" cy="16" r="13.5"/>
<path fill="#75EA9C" d="M13.5,2.5c3,4,0,6-2,9s4,4,3,7s1,5,1,6s-1,1-1,1c-2,0-5-2-7-4s1-5-1-6s0-2-3-4c0,0,0.661-5.588,8.643-8.44"
	/>
<path fill="#75EA9C" d="M22.5,4.5c0,0-4,6,0,9s-1,6,6,8C28.5,21.5,33.083,10.208,22.5,4.5z"/>
<circle fill="none" stroke="#4D5152" stroke-miterlimit="10" cx="16" cy="16" r="13.5"/>
<path fill="none" stroke="#4D5152" stroke-miterlimit="10" d="M22.5,4.5c0,0-4,6,0,9s-1,6,6,8"/>
<path fill="none" stroke="#4D5152" stroke-miterlimit="10" d="M3.5,11.5c3,2,1,3,3,4s-1,4,1,6s5,4,7,4c0,0,1,0,1-1s-2-3-1-6
	s-5-4-3-7s5-5,2-9"/>
</svg>
