<svg width="660" height="180" viewBox="0 0 660 180" fill="none" xmlns="http://www.w3.org/2000/svg">
<rect width="660" height="180" rx="20" fill="#EEEEEE"/>
<path d="M216.5 130C208.433 130 201.733 128.467 196.4 125.4C191.067 122.333 187.1 118.067 184.5 112.6C181.9 107.067 180.6 100.6 180.6 93.2C180.6 86 181.967 79.6667 184.7 74.2C187.433 68.6667 191.5 64.3667 196.9 61.3C202.367 58.1667 209.067 56.6 217 56.6C222.333 56.6 226.767 57.1 230.3 58.1C233.833 59.1 236.467 60.4667 238.2 62.2C240 63.9333 240.9 65.8667 240.9 68C240.9 70.2667 239.867 72.1667 237.8 73.7C235.8 75.2333 233 76 229.4 76C229.4 73.5333 228.933 71.3 228 69.3C227.133 67.2333 225.767 65.6 223.9 64.4C222.1 63.2 219.7 62.6 216.7 62.6C211.5 62.6 207.333 63.8 204.2 66.2C201.067 68.6 198.767 72.0667 197.3 76.6C195.9 81.1333 195.2 86.6667 195.2 93.2C195.2 99.7333 195.933 105.267 197.4 109.8C198.933 114.267 201.367 117.7 204.7 120.1C208.033 122.433 212.467 123.6 218 123.6C219.533 123.6 221 123.533 222.4 123.4C223.867 123.267 225.233 123.033 226.5 122.7V107.5C226.5 105.633 226.167 104.2 225.5 103.2C224.9 102.2 224.033 101.5 222.9 101.1C221.833 100.7 220.533 100.5 219 100.5H218V95.6H247.4V100.5H246.4C245.067 100.5 243.933 100.733 243 101.2C242.067 101.6 241.333 102.333 240.8 103.4C240.333 104.4 240.1 105.9 240.1 107.9V124.9C236.433 126.633 232.7 127.933 228.9 128.8C225.1 129.6 220.967 130 216.5 130ZM279.705 130C271.705 130 265.538 127.6 261.205 122.8C256.938 117.933 254.805 111.167 254.805 102.5C254.805 93.1667 256.871 86.1333 261.005 81.4C265.205 76.6 271.071 74.2 278.605 74.2C285.605 74.2 291.071 76.2333 295.005 80.3C299.005 84.3 301.005 90.2667 301.005 98.2V103.1H268.005C268.138 107.767 268.738 111.567 269.805 114.5C270.938 117.367 272.505 119.5 274.505 120.9C276.571 122.3 279.071 123 282.005 123C284.338 123 286.405 122.667 288.205 122C290.071 121.267 291.671 120.333 293.005 119.2C294.338 118 295.405 116.7 296.205 115.3C296.938 115.633 297.505 116.2 297.905 117C298.371 117.733 298.605 118.6 298.605 119.6C298.605 121.267 297.905 122.9 296.505 124.5C295.171 126.1 293.105 127.433 290.305 128.5C287.571 129.5 284.038 130 279.705 130ZM287.705 97.1C287.705 93.7 287.405 90.7333 286.805 88.2C286.205 85.6667 285.238 83.7333 283.905 82.4C282.638 81 280.905 80.3 278.705 80.3C276.571 80.3 274.738 80.9333 273.205 82.2C271.738 83.4667 270.571 85.3667 269.705 87.9C268.905 90.3667 268.405 93.4333 268.205 97.1H287.705ZM335.269 130C327.602 130 321.535 127.7 317.069 123.1C312.669 118.5 310.469 111.467 310.469 102C310.469 92.6667 312.569 85.7 316.769 81.1C321.035 76.5 327.302 74.2 335.569 74.2C343.302 74.2 349.369 76.5 353.769 81.1C358.169 85.7 360.369 92.6667 360.369 102C360.369 111.467 358.235 118.5 353.969 123.1C349.769 127.7 343.535 130 335.269 130ZM335.469 124.1C338.335 124.1 340.602 123.3 342.269 121.7C344.002 120.033 345.235 117.533 345.969 114.2C346.702 110.867 347.069 106.8 347.069 102C347.069 97.1333 346.669 93.1 345.869 89.9C345.135 86.7 343.902 84.3 342.169 82.7C340.502 81.0333 338.235 80.2 335.369 80.2C332.569 80.2 330.302 81.0333 328.569 82.7C326.835 84.3 325.602 86.7 324.869 89.9C324.135 93.1 323.769 97.1333 323.769 102C323.769 106.867 324.135 110.933 324.869 114.2C325.669 117.467 326.902 119.933 328.569 121.6C330.302 123.267 332.602 124.1 335.469 124.1ZM406.509 129V124.1H410.009C411.209 124.1 412.275 123.967 413.209 123.7C414.142 123.367 414.875 122.733 415.409 121.8C416.009 120.867 416.309 119.433 416.309 117.5V63.3H407.709C405.709 63.3 404.142 63.6333 403.009 64.3C401.875 64.9 401.042 65.7667 400.509 66.9C399.975 68.0333 399.609 69.3333 399.409 70.8L398.809 76.3H392.709L393.209 57.6H453.209L453.709 76.3H447.609L446.909 70.8C446.775 69.3333 446.409 68.0333 445.809 66.9C445.275 65.7667 444.442 64.9 443.309 64.3C442.175 63.6333 440.609 63.3 438.609 63.3H430.009V117.4C430.009 119.333 430.275 120.8 430.809 121.8C431.342 122.733 432.109 123.367 433.109 123.7C434.109 123.967 435.175 124.1 436.309 124.1H439.809V129H406.509ZM481.167 130C473.501 130 467.434 127.7 462.967 123.1C458.567 118.5 456.367 111.467 456.367 102C456.367 92.6667 458.467 85.7 462.667 81.1C466.934 76.5 473.201 74.2 481.467 74.2C489.201 74.2 495.267 76.5 499.667 81.1C504.067 85.7 506.267 92.6667 506.267 102C506.267 111.467 504.134 118.5 499.867 123.1C495.667 127.7 489.434 130 481.167 130ZM481.367 124.1C484.234 124.1 486.501 123.3 488.167 121.7C489.901 120.033 491.134 117.533 491.867 114.2C492.601 110.867 492.967 106.8 492.967 102C492.967 97.1333 492.567 93.1 491.767 89.9C491.034 86.7 489.801 84.3 488.067 82.7C486.401 81.0333 484.134 80.2 481.267 80.2C478.467 80.2 476.201 81.0333 474.467 82.7C472.734 84.3 471.501 86.7 470.767 89.9C470.034 93.1 469.667 97.1333 469.667 102C469.667 106.867 470.034 110.933 470.767 114.2C471.567 117.467 472.801 119.933 474.467 121.6C476.201 123.267 478.501 124.1 481.367 124.1ZM541.03 130C533.364 130 527.297 127.7 522.83 123.1C518.43 118.5 516.23 111.467 516.23 102C516.23 92.6667 518.33 85.7 522.53 81.1C526.797 76.5 533.064 74.2 541.33 74.2C549.064 74.2 555.13 76.5 559.53 81.1C563.93 85.7 566.13 92.6667 566.13 102C566.13 111.467 563.997 118.5 559.73 123.1C555.53 127.7 549.297 130 541.03 130ZM541.23 124.1C544.097 124.1 546.364 123.3 548.03 121.7C549.764 120.033 550.997 117.533 551.73 114.2C552.464 110.867 552.83 106.8 552.83 102C552.83 97.1333 552.43 93.1 551.63 89.9C550.897 86.7 549.664 84.3 547.93 82.7C546.264 81.0333 543.997 80.2 541.13 80.2C538.33 80.2 536.064 81.0333 534.33 82.7C532.597 84.3 531.364 86.7 530.63 89.9C529.897 93.1 529.53 97.1333 529.53 102C529.53 106.867 529.897 110.933 530.63 114.2C531.43 117.467 532.664 119.933 534.33 121.6C536.064 123.267 538.364 124.1 541.23 124.1ZM572.594 129V124.1H573.894C575.094 124.1 576.26 123.967 577.394 123.7C578.527 123.367 579.46 122.733 580.194 121.8C580.994 120.8 581.394 119.333 581.394 117.4V64.2C581.394 62.3333 580.994 60.9667 580.194 60.1C579.394 59.1667 578.427 58.5667 577.294 58.3C576.16 58.0333 575.027 57.9 573.894 57.9H572.594V53H594.394V117.4C594.394 119.333 594.76 120.8 595.494 121.8C596.294 122.733 597.26 123.367 598.394 123.7C599.594 123.967 600.76 124.1 601.894 124.1H603.194V129H572.594Z" fill="#3B4151"/>
<path d="M134.656 90C134.656 108.012 120.012 122.656 102 122.656C83.9875 122.656 69.3438 108.012 69.3438 90C69.3438 87.6281 69.5844 85.325 70.0656 83.125C73.2281 68.4125 86.3594 57.3438 102 57.3438C117.641 57.3438 130.772 68.4125 133.934 83.125C134.416 85.325 134.656 87.6281 134.656 90Z" fill="#E57C5C"/>
<path d="M133.934 83.125C130.772 97.8375 117.641 108.906 102 108.906C86.3594 108.906 73.2282 97.8375 70.0657 83.125C73.2282 68.4125 86.3594 57.3438 102 57.3438C117.641 57.3438 130.772 68.4125 133.934 83.125Z" fill="#E88C77"/>
<path d="M102 59.0625C119.06 59.0625 132.938 72.9431 132.938 90C132.938 107.06 119.06 120.938 102 120.938C84.9431 120.938 71.0625 107.06 71.0625 90C71.0625 72.9431 84.9431 59.0625 102 59.0625ZM102 55.625C83.0147 55.625 67.625 71.0147 67.625 90C67.625 108.985 83.0147 124.375 102 124.375C120.985 124.375 136.375 108.985 136.375 90C136.375 71.0147 120.985 55.625 102 55.625Z" fill="#4D5152"/>
<path d="M69.6909 94.7403C57.1096 104.919 50.1384 114.083 52.6787 118.476C56.6078 125.286 81.8803 118.06 109.122 102.334C136.372 86.6037 155.261 68.33 151.332 61.5203C148.791 57.1237 137.362 58.5778 122.243 64.394" stroke="#4D5152" stroke-width="3" stroke-miterlimit="10"/>
<path d="M65.9062 50.4688V64.2188" stroke="#4D5152" stroke-width="3" stroke-miterlimit="10" stroke-linecap="round"/>
<path d="M59.0312 57.3438H72.7812" stroke="#4D5152" stroke-width="3" stroke-miterlimit="10" stroke-linecap="round"/>
<path d="M141.531 115.781V129.531" stroke="#4D5152" stroke-width="3" stroke-miterlimit="10" stroke-linecap="round"/>
<path d="M134.656 122.656H148.406" stroke="#4D5152" stroke-width="3" stroke-miterlimit="10" stroke-linecap="round"/>
<path d="M76.2188 129.531V136.406" stroke="#4D5152" stroke-width="3" stroke-miterlimit="10" stroke-linecap="round"/>
<path d="M72.7812 132.969H79.6562" stroke="#4D5152" stroke-width="3" stroke-miterlimit="10" stroke-linecap="round"/>
<path d="M127.781 43.5938V50.4688" stroke="#4D5152" stroke-width="3" stroke-miterlimit="10" stroke-linecap="round"/>
<path d="M124.344 47.0312H131.219" stroke="#4D5152" stroke-width="3" stroke-miterlimit="10" stroke-linecap="round"/>
</svg>
