<?xml version="1.0" encoding="utf-8"?>
<!-- Generator: Adobe Illustrator 16.0.0, SVG Export Plug-In . SVG Version: 6.00 Build 0)  -->
<!DOCTYPE svg PUBLIC "-//W3C//DTD SVG 1.1//EN" "http://www.w3.org/Graphics/SVG/1.1/DTD/svg11.dtd">
<svg version="1.1" id="Capa_1" xmlns="http://www.w3.org/2000/svg" xmlns:xlink="http://www.w3.org/1999/xlink" x="0px" y="0px"
	 width="32px" height="32px" viewBox="0 0 32 32" enable-background="new 0 0 32 32" xml:space="preserve">
<g>
	<path fill="#E57C5C" d="M25.5,16c0,5.24-4.26,9.5-9.5,9.5S6.5,21.24,6.5,16c0-0.69,0.07-1.36,0.21-2C7.63,9.72,11.45,6.5,16,6.5
		s8.37,3.22,9.29,7.5C25.43,14.64,25.5,15.31,25.5,16z"/>
</g>
<g>
	<path fill="#E88C77" d="M25.29,14c-0.92,4.28-4.74,7.5-9.29,7.5S7.63,18.28,6.71,14C7.63,9.72,11.45,6.5,16,6.5
		S24.37,9.72,25.29,14z"/>
</g>
<g>
	<path fill="#4D5152" d="M16,7c4.963,0,9,4.038,9,9c0,4.963-4.037,9-9,9c-4.962,0-9-4.037-9-9C7,11.038,11.038,7,16,7 M16,6
		C10.477,6,6,10.477,6,16c0,5.523,4.477,10,10,10c5.523,0,10-4.477,10-10C26,10.477,21.523,6,16,6L16,6z"/>
</g>
<path fill="none" stroke="#4D5152" stroke-miterlimit="10" d="M6.601,17.379c-3.66,2.961-5.688,5.627-4.949,6.905
	c1.143,1.981,8.495-0.121,16.42-4.696c7.927-4.576,13.422-9.892,12.279-11.873c-0.739-1.279-4.064-0.856-8.462,0.836"/>
<line fill="none" stroke="#4D5152" stroke-linecap="round" stroke-miterlimit="10" x1="5.5" y1="4.5" x2="5.5" y2="8.5"/>
<line fill="none" stroke="#4D5152" stroke-linecap="round" stroke-miterlimit="10" x1="3.5" y1="6.5" x2="7.5" y2="6.5"/>
<line fill="none" stroke="#4D5152" stroke-linecap="round" stroke-miterlimit="10" x1="27.5" y1="23.5" x2="27.5" y2="27.5"/>
<line fill="none" stroke="#4D5152" stroke-linecap="round" stroke-miterlimit="10" x1="25.5" y1="25.5" x2="29.5" y2="25.5"/>
<line fill="none" stroke="#4D5152" stroke-linecap="round" stroke-miterlimit="10" x1="8.5" y1="27.5" x2="8.5" y2="29.5"/>
<line fill="none" stroke="#4D5152" stroke-linecap="round" stroke-miterlimit="10" x1="7.5" y1="28.5" x2="9.5" y2="28.5"/>
<line fill="none" stroke="#4D5152" stroke-linecap="round" stroke-miterlimit="10" x1="23.5" y1="2.5" x2="23.5" y2="4.5"/>
<line fill="none" stroke="#4D5152" stroke-linecap="round" stroke-miterlimit="10" x1="22.5" y1="3.5" x2="24.5" y2="3.5"/>
</svg>
